<svg width="1024" height="1024" viewBox="0 0 1024 1024" fill="none" xmlns="http://www.w3.org/2000/svg">
  <defs>
    <linearGradient id="bg" x1="170" y1="120" x2="880" y2="930" gradientUnits="userSpaceOnUse">
      <stop stop-color="#3B86FF"/>
      <stop offset="1" stop-color="#0A4ED8"/>
    </linearGradient>
  </defs>

  <!-- rounded-square background (brand blue) -->
  <rect width="1024" height="1024" rx="232" fill="url(#bg)"/>

  <!-- dual panels -->
  <rect x="236" y="300" width="250" height="424" rx="34" fill="#FFFFFF"/>
  <rect x="538" y="300" width="250" height="424" rx="34" fill="#FFFFFF"/>

  <!-- left pane rows (top row highlighted = active selection) -->
  <rect x="278" y="362" width="166" height="28" rx="14" fill="#1E66F2"/>
  <rect x="278" y="418" width="148" height="22" rx="11" fill="#CBD8EE"/>
  <rect x="278" y="464" width="166" height="22" rx="11" fill="#CBD8EE"/>
  <rect x="278" y="510" width="118" height="22" rx="11" fill="#CBD8EE"/>
  <rect x="278" y="556" width="146" height="22" rx="11" fill="#CBD8EE"/>

  <!-- right pane rows (a different row highlighted = the other pane) -->
  <rect x="580" y="362" width="146" height="22" rx="11" fill="#CBD8EE"/>
  <rect x="580" y="416" width="166" height="28" rx="14" fill="#1E66F2"/>
  <rect x="580" y="472" width="148" height="22" rx="11" fill="#CBD8EE"/>
  <rect x="580" y="518" width="166" height="22" rx="11" fill="#CBD8EE"/>
  <rect x="580" y="564" width="118" height="22" rx="11" fill="#CBD8EE"/>
</svg>
